<?xml version="1.0" encoding="utf-8"?>
<!-- Generator: Adobe Illustrator 27.0.0, SVG Export Plug-In . SVG Version: 6.00 Build 0)  -->
<svg version="1.1" id="Vrstva_1" xmlns="http://www.w3.org/2000/svg" xmlns:xlink="http://www.w3.org/1999/xlink" x="0px" y="0px"
	 viewBox="0 0 331.88 116.48" style="enable-background:new 0 0 331.88 116.48;" xml:space="preserve">
<style type="text/css">
	.st0{clip-path:url(#SVGID_00000054263229793738773300000010803997551922935169_);}
	.st1{fill:#283583;}
	.st2{fill:url(#SVGID_00000104693563796631574300000009281509402417911460_);}
</style>
<g>
	<g>
		<defs>
			<polygon id="SVGID_1_" points="89.1,109.26 -4.38,109.26 -4.38,9.64 89.1,9.64 89.1,64.61 92.75,75.86 89.1,86.01 			"/>
		</defs>
		<clipPath id="SVGID_00000143605973742528595220000013039833274157899444_">
			<use xlink:href="#SVGID_1_"  style="overflow:visible;"/>
		</clipPath>
		<g style="clip-path:url(#SVGID_00000143605973742528595220000013039833274157899444_);">
			<g>
				<path class="st1" d="M44.52,40.98c0,4.61,9.18,4.6,21.09,7.57V37.39c-4.51-1.62-9.21-2.57-13.16-2.57
					C45.53,34.82,44.52,37.6,44.52,40.98z"/>
				<path class="st1" d="M82.63,35.81h6.35V14.17h-35c14.26,0.28,25.97,4.6,34.75,12.04L82.63,35.81z"/>
				<path class="st1" d="M51.19,14.17H17.15v21.64h0.68C20.77,24.2,32.84,14.66,51.19,14.17z"/>
				<path class="st1" d="M65.52,75.25c0-5.24-12.53-5.49-24.84-8.73V79.3c4.05,1.3,8.29,2.26,12.54,2.26
					C61.36,81.55,65.52,79.09,65.52,75.25z"/>
			</g>
			<path class="st1" d="M52.6,14.07c-0.49,0-0.92,0.09-1.41,0.11h2.78C53.5,14.16,53.08,14.07,52.6,14.07z"/>
			<path class="st1" d="M41.99,40.66c0-3.38,3.54-5.84,10.46-5.84c3.95,0,8.65,0.95,13.16,2.57v-1.58h17.02l6.09-9.6
				c-8.78-7.44-20.49-11.76-34.75-12.04h-2.78C32.84,14.66,20.77,24.2,17.83,35.81h22.85v30.71c12.31,3.25,24.84,3.49,24.84,8.73
				c0,3.84-4.16,6.3-12.3,6.3c-4.25,0-8.49-0.95-12.54-2.26v22.06c3.66,0.6,7.53,0.95,11.62,0.95c4.92,0,9.28-0.56,13.32-1.42V48.56
				C53.71,45.59,41.99,45.27,41.99,40.66z"/>
			
				<linearGradient id="SVGID_00000139984731821283476260000001190561513465568699_" gradientUnits="userSpaceOnUse" x1="33.3579" y1="34.7089" x2="76.9321" y2="90.7329">
				<stop  offset="0" style="stop-color:#009FE3"/>
				<stop  offset="1" style="stop-color:#27348B"/>
			</linearGradient>
			<path style="fill:url(#SVGID_00000139984731821283476260000001190561513465568699_);" d="M65.61,48.56
				c-11.9-2.97-21.09-2.96-21.09-7.57c0-3.38,1.01-6.16,7.93-6.16c3.95,0,8.65,0.95,13.16,2.57v-0.07c0,0,26.18,0,27.6,0
				c-0.73-7.19-4.23-10.87-4.23-10.87c-8.78-7.44-20.74-12-35-12.27h-2.78C32.84,14.66,20.1,24.2,17.15,35.81h23.53v30.71
				c12.31,3.25,24.84,3.49,24.84,8.73c0,3.84-4.16,6.3-12.3,6.3c-4.25,0-8.49-0.95-12.54-2.26c-6.34-2.04-12.09-5.19-15.75-8.66
				L14.17,89.85c5.93,5.23,15.13,9.65,26.51,11.5c3.66,0.6,7.53,0.95,11.62,0.95c4.92,0,9.28-0.56,13.32-1.42
				c15.88-3.38,24.81-13.02,24.81-26.87C90.42,57.53,77.91,51.63,65.61,48.56z"/>
		</g>
	</g>
</g>
<g>
	<path class="st1" d="M119.13,72.49V48.14h13.41c6.02,0,9.31,3.69,9.31,8.1c0,4.38-3.29,7.99-9.31,7.99h-6.5v8.25H119.13z
		 M131.61,53.43h-5.58v5.48h5.58c1.85,0,3.21-1.06,3.21-2.7C134.83,54.53,133.46,53.43,131.61,53.43z"/>
	<path class="st1" d="M158.31,47.74c8.19,0,14.29,5.18,14.29,12.59s-6.1,12.59-14.29,12.59s-14.33-5.18-14.33-12.59
		S150.12,47.74,158.31,47.74z M158.31,53.29c-4.46,0-7.31,3.07-7.31,7.04c0,3.94,2.85,7.04,7.31,7.04c4.42,0,7.27-3.1,7.27-7.04
		C165.58,56.35,162.73,53.29,158.31,53.29z"/>
	<path class="st1" d="M181.6,72.49V53.62h-7.51v-5.47h21.88v5.47h-7.47v18.87H181.6z"/>
	<path class="st1" d="M215.69,72.49l-1.37-3.69H203.2l-1.37,3.69h-7.51l10.08-24.34h8.67l10.12,24.34H215.69z M208.74,53.62
		l-3.73,9.89h7.51L208.74,53.62z M210.67,46.1h-4.17l5.1-5.26h5.46L210.67,46.1z"/>
	<path class="st1" d="M225.57,72.49V48.14h13.41c6.02,0,9.31,3.69,9.31,8.1c0,4.38-3.29,7.99-9.31,7.99h-6.5v8.25H225.57z
		 M238.05,53.43h-5.58v5.48h5.58c1.85,0,3.21-1.06,3.21-2.7C241.26,54.53,239.9,53.43,238.05,53.43z"/>
	<path class="st1" d="M251.78,72.49V48.14h19.63v5.29h-12.73v4.05h12.45v5.33h-12.45v4.38h12.73v5.29H251.78z M259.17,46.1
		l-3.73-5.26h3.65l2.77,2.96l2.65-2.96h3.69l-3.61,5.26H259.17z"/>
	<path class="st1" d="M294.06,72.49l-11.32-14.71v14.71h-6.9V48.14h7.11l10.84,14.02V48.14h6.95v24.34H294.06z"/>
	<path class="st1" d="M305.94,72.49V48.14h6.9v24.34H305.94z M311.32,46.1h-4.17l5.1-5.26h5.46L311.32,46.1z"/>
</g>
</svg>
